<svg xmlns="http://www.w3.org/2000/svg" width="1em" height="1em" viewBox="0 0 24 24"><mask id="lineMdBeerAltTwotoneLoop0"><g transform="translate(0 16)"><g><path stroke="#fff" stroke-width="2" d="M18 7C16 7 15 9 13 9C11 9 10 7 8 7C6 7 5 9 3 9C1 9 0 7 -2 7C-4 7 -5 9 -7 9"/><path fill="#fff" fill-opacity="0.3" d="M18 7C16 7 15 9 13 9C11 9 10 7 8 7C6 7 5 9 3 9C1 9 0 7 -2 7C-4 7 -5 9 -7 9V24H18z"/><animateMotion calcMode="linear" dur="3s" path="M0 0h10" repeatCount="indefinite"/></g><animateMotion fill="freeze" begin="0.6s" calcMode="linear" dur="0.6s" path="M0 0v-16"/></g></mask><path fill="none" stroke="white" stroke-dasharray="60" stroke-dashoffset="60" stroke-linecap="round" stroke-linejoin="round" stroke-width="2" d="M18 3L16 21H7L5 3z"><animate fill="freeze" attributeName="stroke-dashoffset" dur="0.6s" values="60;0"/></path><path fill="white" d="M18 3L16 21H7L5 3z" mask="url(#lineMdBeerAltTwotoneLoop0)"/></svg>