<svg xmlns="http://www.w3.org/2000/svg" width="1em" height="1em" viewBox="0 0 24 24"><g fill="none" stroke="grey" stroke-linecap="round" stroke-linejoin="round" stroke-width="2"><path d="m13.6 21.076l5.46-3.152c.584-.337.875-.505 1.087-.74a2 2 0 0 0 .416-.72c.097-.301.097-.637.097-1.307V8.843c0-.67 0-1.006-.098-1.307a2 2 0 0 0-.416-.72c-.21-.234-.5-.402-1.079-.736L13.6 2.924c-.583-.337-.874-.505-1.184-.57a2 2 0 0 0-.832 0c-.31.065-.601.233-1.184.57L4.938 6.077c-.582.336-.873.504-1.084.739a2 2 0 0 0-.416.72c-.098.302-.098.638-.098 1.311v6.305c0 .673 0 1.01.098 1.311a2 2 0 0 0 .416.72c.211.236.503.404 1.085.74l5.46 3.153c.584.337.875.505 1.185.57c.274.059.558.059.832 0c.31-.065.602-.233 1.185-.57"/><path d="M9 12a3 3 0 1 0 6 0a3 3 0 0 0-6 0"/></g></svg>